<?xml version="1.0" encoding="utf-8"?>
<!-- Generator: Adobe Illustrator 23.0.3, SVG Export Plug-In . SVG Version: 6.00 Build 0)  -->
<svg version="1.1" id="Layer_1" xmlns="http://www.w3.org/2000/svg" xmlns:xlink="http://www.w3.org/1999/xlink" x="0px" y="0px"
	 viewBox="0 0 1900 1200" style="enable-background:new 0 0 1900 1200;" xml:space="preserve">
<style type="text/css">
	.st0{fill:none;stroke:#000000;stroke-width:10;stroke-miterlimit:10;}
	.st1{fill:url(#SVGID_1_);}
	.st2{fill:none;stroke:url(#SVGID_2_);stroke-miterlimit:10;}
	.st3{fill:none;stroke:#000000;stroke-width:60;stroke-miterlimit:10;}
	.st4{fill:none;stroke:url(#SVGID_3_);stroke-width:17;stroke-linecap:round;stroke-miterlimit:10;}
	.st5{fill:none;stroke:url(#SVGID_4_);stroke-width:18;stroke-linecap:round;stroke-miterlimit:10;}
</style>
<path class="st0" d="M800.4,351.7"/>
<g>
	
		<image style="overflow:visible;opacity:0.25;" width="954" height="740" xlink:href="A127ED5C.png"  transform="matrix(1 0 0 1 573 236)">
	</image>
	<g>
		<linearGradient id="SVGID_1_" gradientUnits="userSpaceOnUse" x1="581.5" y1="594.3242" x2="1497.95" y2="594.3242">
			<stop  offset="0" style="stop-color:#FFFFFF"/>
			<stop  offset="0" style="stop-color:#2E3192"/>
			<stop  offset="1" style="stop-color:#9E005D"/>
		</linearGradient>
		<path class="st1" d="M581.5,368.3V795c0,106.3,107.4,178.9,206,139.3l663.3-266c63-25.3,62.9-114.6-0.3-139.6L752.3,252.2
			C670.3,219.8,581.5,280.1,581.5,368.3z"/>
		<linearGradient id="SVGID_2_" gradientUnits="userSpaceOnUse" x1="581" y1="594.3242" x2="1498.45" y2="594.3242">
			<stop  offset="0" style="stop-color:#FFFFFF"/>
			<stop  offset="0" style="stop-color:#2E3192"/>
			<stop  offset="0.5475" style="stop-color:#9E005D"/>
			<stop  offset="1" style="stop-color:#40298A"/>
		</linearGradient>
		<path class="st2" d="M581.5,368.3V795c0,106.3,107.4,178.9,206,139.3l663.3-266c63-25.3,62.9-114.6-0.3-139.6L752.3,252.2
			C670.3,219.8,581.5,280.1,581.5,368.3z"/>
	</g>
</g>
<g>
	
		<image style="overflow:visible;opacity:0.25;" width="843" height="661" xlink:href="A127ED5D.png"  transform="matrix(1 0 0 1 681 401)">
	</image>
	<g>
		<g>
			
				<image style="overflow:visible;" width="805.9" height="624.1" xlink:href="737B7FCA.png"  transform="matrix(1 0 0 1 689.5337 407.4657)"/>
		</g>
	</g>
</g>
<path class="st3" d="M713.4,698.9"/>
<linearGradient id="SVGID_3_" gradientUnits="userSpaceOnUse" x1="-500.528" y1="720.8334" x2="346.9783" y2="720.8334" gradientTransform="matrix(-0.9257 -0.3782 0.3782 -0.9257 768.8094 1004.4807)">
	<stop  offset="0" style="stop-color:#FFFFFF"/>
	<stop  offset="0" style="stop-color:#2E3192"/>
	<stop  offset="0" style="stop-color:#9E005D"/>
	<stop  offset="1" style="stop-color:#40298A"/>
</linearGradient>
<line class="st4" x1="1496.9" y1="523.2" x2="728.1" y2="209.2"/>
<linearGradient id="SVGID_4_" gradientUnits="userSpaceOnUse" x1="1510.3317" y1="480.7019" x2="724.8383" y2="159.8233">
	<stop  offset="0" style="stop-color:#FFFFFF"/>
	<stop  offset="0" style="stop-color:#2E3192"/>
	<stop  offset="0" style="stop-color:#40298A"/>
	<stop  offset="1" style="stop-color:#9B015F"/>
	<stop  offset="1" style="stop-color:#9E005D"/>
	<stop  offset="1" style="stop-color:#9B015F"/>
</linearGradient>
<line class="st5" x1="1502" y1="477.3" x2="733.2" y2="163.2"/>
</svg>
